<svg version="1.1" id="logo" viewBox="0.0 0.0 179.91601049868765 179.91601049868765" fill="none" stroke="none" stroke-linecap="square" stroke-miterlimit="10" xmlns:xlink="http://www.w3.org/1999/xlink" xmlns="http://www.w3.org/2000/svg">
    <g id="logoWhite">
        <clipPath id="p.0"><path d="m0 0l179.91602 0l0 179.91602l-179.91602 0l0 -179.91602z" clip-rule="nonzero"/></clipPath>
        <g clip-path="url(#p.0)"><path fill="#000000" fill-opacity="0.0" d="m0 0l179.91602 0l0 179.91602l-179.91602 0z" fill-rule="evenodd"/><path fill="#ffffff" d="m129.33969 64.61419l0 0c6.4708557 -8.81916 18.865875 -10.722832 27.685028 -4.2519684l0 0c4.2351074 3.107418 7.0623474 7.7699585 7.859741 12.961906c0.79740906 5.1919556 -0.50035095 10.488022 -3.6077728 14.723129l0 0c-6.4708557 8.819168 -18.865875 10.722832 -27.685028 4.2519684l0 0c-8.819168 -6.4708633 -10.722839 -18.865875 -4.2519684 -27.685036z" fill-rule="evenodd"/><path fill="#ffffff" d="m70.47971 22.850435l0 0c6.4708633 -8.819161 18.865883 -10.722833 27.685043 -4.2519684l0 0c4.2351074 3.107418 7.06234 7.7699566 7.859741 12.961908c0.7974014 5.1919518 -0.5003586 10.488022 -3.6077728 14.723129l0 0c-6.4708633 8.819164 -18.865883 10.722832 -27.685043 4.2519684l0 0c-8.81916 -6.4708633 -10.722832 -18.865877 -4.2519684 -27.685038z" fill-rule="evenodd"/><path fill="#ffffff" d="m74.11021 36.73308l0 0c-9.626869 13.127029 -11.394081 30.436626 -4.6185684 45.23824c6.7755127 14.8016205 21.032188 24.776207 37.259506 26.068352c16.227325 1.2921524 31.882843 -6.300583 40.915375 -19.843445l-13.039444 -8.696762c-5.8792725 8.815041 -16.06945 13.757156 -26.631813 12.916092c-10.562363 -0.8410568 -19.842026 -7.3335114 -24.252213 -16.967888c-4.410179 -9.634377 -3.259903 -20.901188 3.0062256 -29.445572z" fill-rule="evenodd"/><path fill="#ffffff" d="m77.79585 95.112976l11.937004 8.755905l-25.102364 34.204727l-11.937004 -8.755905z" fill-rule="evenodd"/><path fill="#ffffff" d="m41.71969 124.34131l0 0c6.4708633 -8.81916 18.86588 -10.722832 27.685036 -4.2519684l0 0c4.235115 3.1074219 7.0623474 7.7699585 7.859749 12.961914c0.7973938 5.1919403 -0.5003586 10.488022 -3.6077805 14.723129l0 0c-6.4708633 8.819153 -18.865875 10.722824 -27.685036 4.2519684l0 0c-8.81916 -6.470871 -10.722832 -18.865875 -4.2519684 -27.685043z" fill-rule="evenodd"/><path fill="#ffffff" d="m73.96899 78.22029l0 0c6.4708633 -8.81916 18.865875 -10.722832 27.685036 -4.2519684l0 0c4.235115 3.1074142 7.0623474 7.769951 7.859749 12.961906c0.7973938 5.191948 -0.5003586 10.488022 -3.6077805 14.723129l0 0c-6.4708633 8.81916 -18.865875 10.722832 -27.685036 4.2519684l0 0c-8.81916 -6.4708633 -10.722832 -18.865875 -4.2519684 -27.685036z" fill-rule="evenodd"/></g>
    </g>        
</svg>